<svg aria-hidden="true" style="position: absolute; width: 0; height: 0; overflow: hidden;" version="1.1" xmlns="http://www.w3.org/2000/svg" xmlns:xlink="http://www.w3.org/1999/xlink">
<defs>
<symbol id="icon-lamp" viewBox="0 0 32 32">
<path d="M22.449 17.997c1.076-1.426 1.642-3.127 1.637-4.918-0.006-2.196-0.873-4.252-2.44-5.79s-3.642-2.364-5.838-2.327c-2.128 0.036-4.131 0.895-5.639 2.42s-2.347 3.536-2.36 5.665c-0.012 1.825 0.567 3.553 1.673 4.997 1.796 2.345 2.789 5.221 2.797 8.097l0.008 3.148c0.004 1.396 1.143 2.529 2.539 2.525l2.355-0.006c1.396-0.004 2.529-1.143 2.525-2.539l-0.008-3.147c-0.008-2.908 0.937-5.718 2.753-8.125v0zM10.309 17.41c-0.964-1.259-1.468-2.765-1.458-4.356 0.025-3.822 3.153-6.983 6.974-7.048 1.917-0.031 3.723 0.688 5.090 2.028s2.123 3.133 2.128 5.047c0.004 1.561-0.489 3.044-1.426 4.287-1.913 2.536-2.939 5.492-2.973 8.56l-5.325 0.014c-0.052-3.038-1.117-6.061-3.010-8.533v0zM13.328 28.933l-0.001-0.422 5.334 0.597 0 0.165c0 0.087-0.009 0.172-0.023 0.255l-5.311-0.594zM13.324 27.46l-0.001-0.474 5.332-0.014 0.003 1.085-5.334-0.597zM14.821 30.771c-0.561 0.002-1.050-0.309-1.305-0.767l4.493 0.503c-0.238 0.162-0.524 0.257-0.833 0.258l-2.355 0.006z"></path>
<path d="M10.789 13.899c-0.041-0.273-0.062-0.553-0.060-0.834 0.002-0.288-0.23-0.523-0.518-0.525-0.286-0.002-0.523 0.23-0.525 0.518-0.002 0.335 0.022 0.67 0.072 0.997 0.039 0.259 0.262 0.444 0.517 0.444 0.026-0 0.052-0.002 0.078-0.006 0.285-0.043 0.481-0.309 0.437-0.594z"></path>
<path d="M13.881 21.817c0.054-0 0.109-0.009 0.163-0.027 0.274-0.091 0.422-0.386 0.331-0.66-0.583-1.757-1.449-3.393-2.575-4.863-0.186-0.243-0.351-0.502-0.49-0.769-0.133-0.256-0.448-0.355-0.704-0.222s-0.355 0.448-0.222 0.704c0.167 0.321 0.365 0.631 0.587 0.922 1.055 1.377 1.866 2.91 2.413 4.557 0.073 0.219 0.277 0.358 0.497 0.358z"></path>
<path d="M21.434 14.873c-0.265-0.113-0.572 0.010-0.685 0.275-0.164 0.384-0.377 0.751-0.633 1.090-0.174 0.23-0.128 0.557 0.102 0.731 0.094 0.071 0.205 0.105 0.315 0.105 0.158-0 0.313-0.072 0.416-0.208 0.306-0.406 0.562-0.846 0.759-1.308 0.113-0.265-0.010-0.572-0.275-0.685v0z"></path>
<path d="M15.932 7.884c2.877-0.008 5.224 2.327 5.231 5.203 0 0.164-0.007 0.328-0.021 0.49-0.026 0.287 0.186 0.54 0.473 0.566 0.016 0.001 0.032 0.002 0.048 0.002 0.267-0.001 0.494-0.205 0.518-0.476 0.017-0.193 0.026-0.39 0.025-0.585-0.009-3.452-2.825-6.253-6.278-6.244-0.288 0.001-0.521 0.235-0.52 0.523s0.235 0.521 0.523 0.52v0z"></path>
<path d="M15.922 4.062c0.288-0.001 0.521-0.235 0.52-0.523l-0.008-2.922c-0.001-0.288-0.235-0.521-0.523-0.52s-0.521 0.235-0.52 0.523l0.008 2.922c0.001 0.288 0.235 0.521 0.523 0.52z"></path>
<path d="M10.646 5.107c0.097 0.167 0.273 0.26 0.453 0.26 0.088-0 0.178-0.023 0.26-0.071 0.249-0.145 0.334-0.464 0.189-0.713l-1.467-2.526c-0.145-0.249-0.464-0.334-0.713-0.189s-0.334 0.464-0.189 0.713l1.467 2.526z"></path>
<path d="M27.113 18.997l-2.533-1.453c-0.25-0.143-0.569-0.057-0.712 0.193s-0.057 0.569 0.193 0.712l2.533 1.453c0.082 0.047 0.172 0.070 0.261 0.069 0.18-0 0.355-0.095 0.452-0.262 0.143-0.25 0.057-0.569-0.193-0.712v0z"></path>
<path d="M4.78 7.387l2.533 1.454c0.082 0.047 0.172 0.070 0.261 0.069 0.18-0 0.355-0.095 0.452-0.262 0.143-0.25 0.057-0.569-0.193-0.712l-2.533-1.454c-0.25-0.143-0.569-0.057-0.712 0.193s-0.057 0.569 0.193 0.712v0z"></path>
<path d="M28.519 12.636l-2.922 0.008c-0.288 0.001-0.521 0.235-0.52 0.523s0.235 0.521 0.523 0.52l2.922-0.008c0.288-0.001 0.521-0.235 0.52-0.523s-0.235-0.521-0.523-0.52z"></path>
<path d="M6.816 13.216c-0.001-0.288-0.235-0.521-0.523-0.52l-2.922 0.008c-0.288 0.001-0.521 0.235-0.52 0.523s0.235 0.521 0.523 0.52l2.922-0.008c0.288-0.001 0.521-0.235 0.52-0.523z"></path>
<path d="M24.296 8.865c0.088-0 0.178-0.023 0.26-0.071l2.526-1.467c0.249-0.145 0.334-0.464 0.189-0.713s-0.464-0.334-0.713-0.189l-2.526 1.467c-0.249 0.145-0.334 0.464-0.189 0.713 0.097 0.167 0.273 0.26 0.453 0.26z"></path>
<path d="M7.337 17.59l-2.526 1.467c-0.249 0.145-0.334 0.464-0.189 0.713 0.097 0.167 0.273 0.26 0.453 0.26 0.088-0 0.178-0.023 0.26-0.071l2.526-1.467c0.249-0.145 0.334-0.464 0.189-0.713s-0.464-0.334-0.713-0.189v0z"></path>
<path d="M20.491 5.271c0.082 0.047 0.172 0.070 0.261 0.069 0.18-0 0.355-0.095 0.452-0.262l1.453-2.533c0.143-0.25 0.057-0.569-0.193-0.712s-0.569-0.057-0.712 0.193l-1.453 2.533c-0.143 0.25-0.057 0.569 0.193 0.712v0z"></path>
</symbol>
<symbol id="icon-burger-menu" viewBox="0 0 57 32">
      <path fill="#39515e" style="fill:var(--color1, #39515e)" d="M1.684 0h53.102c.93 0 1.684.754 1.684 1.684v2.279c0 .93-.754 1.684-1.684 1.684H1.684C.754 5.647 0 4.893 0 3.963V1.684C0 .754.754 0 1.684 0zM1.684 13.176h53.102c.93 0 1.684.754 1.684 1.684v2.279c0 .93-.754 1.684-1.684 1.684H1.684c-.93 0-1.684-.754-1.684-1.684V14.86c0-.93.754-1.684 1.684-1.684zM1.684 26.353h36.574c.93 0 1.684.754 1.684 1.684v2.279c0 .93-.754 1.684-1.684 1.684H1.684C.754 32 0 31.246 0 30.316v-2.279c0-.93.754-1.684 1.684-1.684z"/>
</symbol>
</defs>
</svg>
